# xmcd
#
# Track frame offsets:
#	150
#	13828
#	30526
#	42805
#	57868
#	77133
#	89990
#	108635
#	125464
#	137750
#
# Disc length: 2069 seconds
#
# Revision: 1
# Processed by: cddbd v1.5.1PL0 Copyright (c) Steve Scherf et al.
# Submitted via: EasyCDDAExtractor 6.2.0.3
#
DISCID=8708130a
DTITLE=Monserrat Bustamante - Música en Español - Monserrat Bustamante - La ch
DTITLE=ica de rojo
DYEAR=2003
DGENRE=Rojo
TTITLE0=Corazon bandido
TTITLE1=Yo sin tu amor
TTITLE2=Maldita ignorancia
TTITLE3=Tu me completas
TTITLE4=Dos locos
TTITLE5=Si tu te vas
TTITLE6=Sueltalo
TTITLE7=Entre el delirio y la locura
TTITLE8=Dicen
TTITLE9=En cuerpo y alma
EXTD=
EXTT0=
EXTT1=
EXTT2=
EXTT3=
EXTT4=
EXTT5=
EXTT6=
EXTT7=
EXTT8=
EXTT9=
PLAYORDER=
